<svg width="143" height="143" viewBox="0 0 143 143" fill="none" xmlns="http://www.w3.org/2000/svg">
<g clip-path="url(#clip0_118_15)">
<mask id="mask0_118_15" style="mask-type:luminance" maskUnits="userSpaceOnUse" x="0" y="-1" width="142" height="146">
<path d="M141.993 -1H0V145H141.993V-1Z" fill="white"/>
</mask>
<g mask="url(#mask0_118_15)">
<path fill-rule="evenodd" clip-rule="evenodd" d="M61.9274 0.49546C54.8812 1.52969 43.8275 4.64536 43.4422 5.70554C43.3754 5.88923 43.0904 6.03997 42.8094 6.03997C42.1607 6.03997 35.8349 9.3703 33.6906 10.8408C32.8003 11.4507 31.9305 11.9499 31.7576 11.9499C31.5836 11.9499 31.3871 12.0746 31.3212 12.2274C31.2544 12.3791 30.6097 12.9192 29.8894 13.4273C26.9795 15.4778 25.5575 16.7426 21.3819 20.9924C17.4009 25.0424 15.8471 26.7775 14.8359 28.2969C14.6364 28.5974 13.639 30.0708 12.6198 31.5713C10.9099 34.087 8.97197 37.4033 7.89587 39.6544C6.77654 41.9954 5.61201 44.7237 5.3732 45.5653C5.22874 46.0724 4.986 46.6544 4.83369 46.8581C4.68136 47.0607 4.43666 47.8095 4.29024 48.5202C4.14479 49.231 3.8942 49.9797 3.73499 50.1824C3.57579 50.3861 3.27605 51.3833 3.0687 52.3986C2.86134 53.4149 2.50952 55.077 2.28644 56.0923C2.06336 57.1085 1.68698 58.8536 1.44916 59.9716C0.832989 62.8747 0.870333 80.1112 1.50027 83.2438C2.48594 88.1434 3.50504 92.3043 3.80182 92.6447C3.97084 92.8374 4.10843 93.3056 4.10843 93.6839C4.10843 94.6493 5.42332 97.9127 8.14549 103.703C9.80925 107.242 14.1657 114.273 14.6944 114.273C14.8723 114.273 15.0197 114.48 15.0216 114.734C15.0285 115.658 22.3784 123.606 25.869 126.464C26.7368 127.174 27.8001 128.065 28.2325 128.443C28.9244 129.05 32.8474 131.757 34.8463 133.006C35.7258 133.555 43.0835 137.235 44.8357 138.002C46.9988 138.948 49.5803 139.78 54.836 141.224C56.3848 141.649 59.4469 142.142 64.4727 142.774C67.9663 143.214 78.1699 142.974 81.1997 142.38C82.2993 142.164 84.0997 141.813 85.1994 141.598C91.6039 140.35 96.0497 138.824 102.291 135.73L102.394 135.679L102.397 135.678C103.286 135.237 103.877 134.944 104.456 134.628C105.601 134.002 106.697 133.287 109.96 131.156L110.151 131.031C114.288 128.329 115.233 127.608 117.584 125.355C118.327 124.643 119.649 123.378 120.522 122.543C123.658 119.541 126.283 116.447 128.473 113.173C128.772 112.723 129.304 112.015 129.654 111.596C130.004 111.177 130.291 110.611 130.291 110.337C130.291 110.064 130.417 109.84 130.571 109.84C130.725 109.84 131.257 109.051 131.753 108.085C132.249 107.12 132.743 106.247 132.851 106.146C134.338 104.747 138.858 92.5139 139.769 87.4166C139.96 86.3605 140.257 85.1136 140.431 84.6464C141.321 82.2675 141.698 70.9439 141.092 64.7624C139.893 52.5114 137.863 46.0774 131.593 34.668C128.791 29.5697 121.133 20.4992 116.153 16.3823C115.294 15.6715 114.399 14.9218 114.167 14.7161C110.226 11.2251 100.087 5.77442 93.5634 3.64008C91.8633 3.08303 90.1455 2.49604 89.7455 2.33531C84.7523 0.32176 69.8354 -0.665551 61.9274 0.49546ZM78.6544 8.05153C86.6165 8.95797 96.6708 12.4131 103.197 16.4851C110.586 21.0952 123.018 33.0547 123.018 35.5524C123.018 35.7431 123.15 35.9548 123.31 36.0226C124.054 36.3361 128.198 44.2985 129.719 48.3356C130.255 49.7581 130.826 51.2536 130.989 51.6599C131.87 53.8591 133.154 59.9287 133.607 64.0347C134.059 68.1546 133.779 80.5524 133.186 82.6388C132.962 83.4235 132.637 84.8361 132.465 85.7785C131.546 90.7809 128.652 98.1722 125.577 103.375C124.977 104.392 124.319 105.555 124.116 105.961C122.513 109.166 116.191 116.44 111.505 120.472C102.978 127.807 90.2791 133.563 80.0185 134.746L78.2908 134.944V105.215V75.4861H87.7358H97.1809L97.7676 76.6381C102.403 85.7445 116.837 81.937 116.837 71.6077C116.837 60.924 102.024 57.1255 97.5887 66.6712L97.0118 67.913L87.6513 68.0119L78.2908 68.1107V57.454V46.7972L79.8366 45.5393C81.5604 44.1367 82.2679 43.5478 83.685 42.3328C84.6078 41.5422 84.9537 41.5023 90.9218 41.5023L97.1896 41.5013L97.6908 42.7182C101.65 52.3427 117.728 47.7925 116.716 37.3344C116.385 33.9133 116.067 33.1056 114.232 31.0132C109.546 25.6724 99.1905 26.8404 97.6987 32.876L97.4845 33.7445H90.4216C81.8994 33.7445 80.1806 34.4493 73.5668 40.6527C73.0696 41.1199 72.5448 41.5013 72.4023 41.5013C71.0393 41.5013 70.654 44.8066 70.654 56.5096V68.0977H50.109H29.5631V57.4679V46.8371L32.8838 44.1697L36.2044 41.5013H42.0005C47.778 41.5013 48.8364 41.7189 48.8364 42.9069C48.8364 45.0302 53.9967 47.9532 57.7449 47.9532C69.0472 47.9532 71.9129 32.4697 61.4282 28.0573C57.1238 26.2454 50.452 28.6742 48.8345 32.6404L48.3843 33.7445H41.4836C33.6159 33.7445 33.4459 33.7885 29.5631 36.8502C28.2629 37.8745 27.118 38.8059 27.0178 38.9197C26.9176 39.0325 26.0567 39.7652 25.1055 40.5459C24.926 40.6931 24.7567 40.8269 24.5969 40.9533C24.1863 41.2778 23.8388 41.5526 23.5444 41.8754C21.9179 43.659 21.919 46.9062 21.9262 68.0996V68.1007V68.1019V68.1032V68.1045V68.1059V68.1075V68.1091V68.1107V68.1125V68.1143V68.1162V68.1182C21.9267 69.6111 21.9273 71.193 21.9273 72.8696C21.9273 99.744 21.946 100.486 22.6564 101.912C23.308 103.22 25.9889 106.146 26.5354 106.146C26.6523 106.146 27.3618 106.686 28.1126 107.347C31.4392 110.273 32.3285 110.94 32.9054 110.944C33.2435 110.946 33.6218 111.114 33.7456 111.318C33.8822 111.543 36.7174 111.687 41.0346 111.687H48.0994L48.97 113.088C54.5353 122.042 67.7776 118.306 67.8168 107.77C67.8562 96.9763 54.4085 93.5581 48.7106 102.913L48.0925 103.929H42.0094C36.0707 103.928 35.9007 103.906 34.8364 103.013C34.236 102.509 33.5815 101.967 33.381 101.807C33.1815 101.648 32.2411 100.877 31.2907 100.093L29.5631 98.6694V87.0772V75.4861H50.109H70.654V105.565V135.644L68.5638 135.477C48.8678 133.91 32.4976 125.384 21.829 111.136C21.6757 110.931 21.2089 110.347 20.7932 109.84C18.758 107.358 13.4523 97.9406 12.727 95.5258C12.6198 95.1704 12.0282 93.4673 11.4121 91.7422C10.7949 90.0172 10.2908 88.2632 10.2908 87.8449C10.2908 87.4276 10.1394 86.9275 9.95371 86.7338C9.64317 86.4104 9.38668 84.9738 8.46978 78.441C8.059 75.514 8.059 67.1853 8.47077 64.404C9.39552 58.1537 9.64906 56.7991 9.95371 56.4806C10.1394 56.2879 10.2908 55.7828 10.2908 55.3585C10.2908 54.0608 12.7613 47.1586 14.5853 43.3631C18.5339 35.1431 28.1421 23.4282 33.5107 20.2866C33.835 20.0969 34.2655 19.8024 34.4679 19.6327C34.6703 19.463 35.2296 18.9948 35.7101 18.5925C36.1907 18.1902 36.8039 17.8607 37.0731 17.8607C37.3433 17.8607 37.5635 17.721 37.5635 17.5513C37.5635 17.3816 38.4224 16.7896 39.472 16.2355C40.5225 15.6815 41.6271 15.0725 41.9268 14.8828C50.5827 9.4092 65.7698 6.58404 78.6544 8.05153ZM59.3261 35.6004C60.5191 36.6086 60.5653 38.756 59.4145 39.7013C58.249 40.6597 57.1051 40.5659 55.9769 39.4198C53.6951 37.1018 56.8506 33.5039 59.3261 35.6004ZM107.975 35.5075C109.718 36.9411 109.765 38.5234 108.109 39.913C106.58 41.1948 104.109 39.8181 104.109 37.6828C104.109 35.4436 106.36 34.1778 107.975 35.5075ZM108.356 69.668C109.541 71.0057 109.623 71.3412 109.046 72.4752C107.728 75.0638 104.109 74.361 104.109 71.5169C104.109 69.1569 106.846 67.965 108.356 69.668ZM59.2622 105.692C60.6901 106.846 60.529 109.23 58.9674 110.051C57.6151 110.762 56.485 110.397 55.5524 108.951C54.0793 106.668 57.1405 103.978 59.2622 105.692Z" fill="#243464"/>
</g>
</g>
<defs>
<clipPath id="clip0_118_15">
<rect width="143" height="143" fill="white"/>
</clipPath>
</defs>
</svg>
