<svg width="100" height="100" viewBox="0 0 100 100" fill="none" xmlns="http://www.w3.org/2000/svg">
<g clip-path="url(#clip0_3_3)">
<path fill-rule="evenodd" clip-rule="evenodd" d="M48.8396 9.50924C48.802 9.54796 48.3342 9.62046 47.8001 9.67062C46.2336 9.81797 44.9233 10.1028 43.2944 10.6506C42.3344 10.9734 39.2924 12.4456 39.2924 12.5875C39.2924 12.64 39.2422 12.6828 39.1811 12.6828C39.0725 12.6828 38.2084 13.2418 37.9834 13.4575C37.921 13.5173 37.7149 13.6834 37.5255 13.8263C34.9909 15.7379 32.4964 19.0511 31.2635 22.1423C31.2066 22.2852 31.1188 22.4835 31.0681 22.5828C31.0177 22.6821 30.9763 22.8546 30.9763 22.9664C30.9763 23.0781 30.9296 23.1984 30.8724 23.2338C30.8152 23.2691 30.7684 23.4095 30.7684 23.5456C30.7684 23.6818 30.7217 23.8221 30.6645 23.8575C30.6073 23.8928 30.5605 24.0565 30.5605 24.2213C30.5605 24.3861 30.5187 24.5467 30.4675 24.5784C30.4163 24.6098 30.3487 24.8115 30.317 25.0261C30.2853 25.2411 30.2092 25.674 30.1479 25.9885C29.815 27.6995 29.7321 29.7294 29.9186 31.6018C30.1042 33.4609 30.1577 33.8292 30.2588 33.9355C30.3103 33.9898 30.3526 34.1631 30.3526 34.3203C30.3526 34.4778 30.3945 34.714 30.4457 34.8453C30.4969 34.9768 30.5959 35.2946 30.6655 35.5519C30.7851 35.9937 30.8261 36.1119 31.0803 36.7473C31.1375 36.8902 31.2253 37.1124 31.2755 37.2411C32.7048 40.9022 35.4114 44.2083 38.8979 46.5519C39.3383 46.8481 39.7438 47.0904 39.7988 47.0904C39.8537 47.0904 39.9142 47.126 39.9335 47.1696C39.9633 47.2382 41.8776 48.206 42.4628 48.4485C43.7328 48.9744 45.9025 49.5241 47.3485 49.6865C47.9202 49.7507 48.6138 49.8476 48.8898 49.9019C49.5307 50.0285 50.4678 50.0285 51.1086 49.9019C51.3846 49.8476 52.0782 49.7507 52.6499 49.6865C53.8604 49.5506 55.5452 49.1756 56.3921 48.8536C56.5065 48.8102 56.7638 48.7182 56.9639 48.6496C57.5543 48.4469 57.7196 48.3791 58.1952 48.1447C58.4436 48.0223 58.7126 47.922 58.7929 47.922C58.8732 47.922 58.9392 47.8869 58.9392 47.844C58.9394 47.8011 59.1967 47.6491 59.5107 47.5061C59.8246 47.3632 60.0819 47.2112 60.0821 47.1683C60.0821 47.1254 60.1312 47.0904 60.191 47.0904C60.2508 47.0904 60.6601 46.8481 61.1006 46.5519C64.5767 44.2153 67.2978 40.8913 68.723 37.2411C68.7731 37.1124 68.8578 36.9019 68.9114 36.7733C68.9646 36.6447 69.0639 36.3523 69.132 36.1236C69.1998 35.8949 69.2965 35.6265 69.3467 35.5272C69.3968 35.4279 69.4379 35.232 69.4379 35.0916C69.4379 34.9513 69.4847 34.8076 69.5418 34.7723C69.599 34.7369 69.6458 34.5563 69.6458 34.371C69.6458 34.1857 69.6881 33.9898 69.7396 33.9355C70.2175 33.4326 70.2892 28.4646 69.8537 26.0404C69.7921 25.6974 69.7152 25.2411 69.6827 25.0261C69.6502 24.8115 69.5821 24.6098 69.5309 24.5784C69.4797 24.5467 69.4379 24.3861 69.4379 24.2213C69.4379 24.0565 69.3911 23.8928 69.3339 23.8575C69.2768 23.8221 69.23 23.6818 69.23 23.5456C69.23 23.4095 69.1832 23.2691 69.126 23.2338C69.0689 23.1984 69.0221 23.0781 69.0221 22.9664C69.0221 22.8546 68.9808 22.6821 68.9303 22.5828C68.8797 22.4835 68.7918 22.2852 68.7349 22.1423C67.5039 19.0555 65.105 15.8663 62.4769 13.8232C62.2217 13.6249 61.9205 13.3806 61.8074 13.2806C61.6946 13.1805 61.5626 13.0986 61.5138 13.0986C61.4649 13.0986 61.3347 13.0144 61.224 12.9113C61.1136 12.8084 60.8464 12.6275 60.6307 12.5095C60.4148 12.3915 59.9291 12.1257 59.5509 11.9185C59.1728 11.7117 58.5179 11.3991 58.0956 11.2236C57.6733 11.0485 57.2341 10.8632 57.1198 10.8117C56.455 10.5129 54.8438 10.0607 53.7414 9.86319C52.3121 9.60747 48.9784 9.36657 48.8396 9.50924ZM56.782 50.5924C56.882 50.6184 57.0457 50.6184 57.1458 50.5924C57.2458 50.5662 57.164 50.5449 56.9639 50.5449C56.7638 50.5449 56.6819 50.5662 56.782 50.5924ZM41.672 50.6704C41.6468 50.6956 41.2531 50.7673 40.797 50.8294C40.3412 50.8918 39.7341 50.9882 39.4483 51.0436C39.1624 51.0989 38.6946 51.1894 38.4088 51.2442C38.1229 51.299 37.6785 51.39 37.4212 51.4464C36.9821 51.5425 36.7201 51.6057 35.6281 51.8786C35.3851 51.9391 35.0572 52.0147 34.8992 52.0464C34.7412 52.0781 34.5865 52.1452 34.5551 52.1959C34.5239 52.2465 34.3636 52.2879 34.1988 52.2879C34.034 52.2879 33.8703 52.3346 33.835 52.3918C33.7996 52.449 33.6359 52.4958 33.4711 52.4958C33.3064 52.4958 33.1427 52.5425 33.1073 52.5997C33.072 52.6569 32.9316 52.7037 32.7955 52.7037C32.6593 52.7037 32.519 52.7504 32.4836 52.8076C32.4483 52.8648 32.328 52.9116 32.2162 52.9116C32.1045 52.9116 31.9319 52.9529 31.8326 53.0033C31.5998 53.1218 31.4083 53.1998 29.7726 53.8417C29.0247 54.1351 27.7149 54.7304 26.862 55.1644C26.0091 55.5984 25.2061 56.0059 25.0779 56.0698C24.9498 56.1338 24.8446 56.2211 24.8441 56.264C24.8435 56.3068 24.7944 56.3419 24.7347 56.3419C24.5938 56.3419 23.2884 57.2151 22.0366 58.1468C20.9179 58.9794 18.6336 61.1798 18.0865 61.9518C17.8864 62.2341 17.6876 62.4674 17.6447 62.47C17.6019 62.4729 17.5668 62.5238 17.5668 62.5833C17.5668 62.6429 17.4826 62.7819 17.3794 62.8926C17.1149 63.1766 16.3131 64.6512 15.9109 65.5935C14.3992 69.1353 14.7926 73.8307 16.8578 76.8908C17.019 77.1299 17.151 77.3755 17.151 77.4365C17.151 77.4976 17.19 77.5478 17.2373 77.5478C17.2848 77.5478 17.3898 77.6764 17.4706 77.8336C17.5512 77.9908 17.6884 78.1896 17.7752 78.2754C17.862 78.3612 18.0696 78.6184 18.2367 78.8471C18.6247 79.3781 20.4589 81.211 21.205 81.8131C21.5195 82.067 21.8001 82.3009 21.8287 82.3331C21.8573 82.3651 22.0444 82.5046 22.2445 82.6429C22.4446 82.7811 22.6702 82.9545 22.7458 83.0277C22.8212 83.101 22.9231 83.1611 22.9722 83.1611C23.0213 83.1611 23.1232 83.2224 23.1985 83.297C23.7276 83.8209 28.1214 86.1582 29.8069 86.8126C30.2835 86.9976 30.6175 87.1379 30.7931 87.2273C30.8924 87.2778 31.0449 87.3191 31.1323 87.3191C31.2196 87.3191 31.3721 87.3604 31.4714 87.4108C31.7913 87.5735 32.1549 87.705 32.9514 87.9459C33.3802 88.0756 33.9283 88.2437 34.1694 88.3196C35.3895 88.704 39 89.5072 40.6437 89.7603C49.5416 91.1296 58.7513 90.522 66.7872 88.035C67.3589 87.8583 67.9202 87.6761 68.0346 87.6307C68.1489 87.5852 68.4062 87.4916 68.6063 87.423C69.1208 87.2463 69.5829 87.0675 70.2175 86.7993C70.389 86.7268 70.6229 86.6307 70.7373 86.5854C71.4808 86.2918 74.2357 84.8996 75.1032 84.3791C76.2334 83.7006 77.2557 83.0478 77.3381 82.9519C77.3667 82.9183 77.5538 82.7788 77.7539 82.6413C77.954 82.5038 78.1411 82.3651 78.1697 82.3331C78.1983 82.3009 78.4789 82.0683 78.7934 81.8162C79.5223 81.2317 81.3625 79.3905 81.7609 78.8471C81.9285 78.6184 82.1364 78.3612 82.2232 78.2754C82.31 78.1896 82.4472 77.9908 82.5278 77.8336C82.6086 77.6764 82.7136 77.5478 82.7612 77.5478C82.8085 77.5478 82.8474 77.4976 82.8474 77.4365C82.8474 77.3755 82.9795 77.1299 83.1406 76.8908C84.6824 74.6062 85.388 70.9334 84.8248 68.1242C84.4532 66.2712 83.4252 63.8388 82.6136 62.8926C82.5135 62.7759 82.4316 62.6343 82.4316 62.5776C82.4316 62.5212 82.395 62.475 82.35 62.475C82.3053 62.475 82.1845 62.3328 82.0821 62.1592C81.7921 61.6681 79.5655 59.4069 78.639 58.6626C77.6713 57.8848 75.4285 56.3419 75.2661 56.3419C75.205 56.3419 75.1549 56.3068 75.1544 56.264C75.1538 56.2211 75.0486 56.1361 74.9205 56.075C74.7924 56.0142 74.243 55.726 73.6998 55.4344C73.1567 55.1431 72.2212 54.6891 71.6208 54.4259C71.0205 54.1626 70.448 53.9012 70.3487 53.845C70.2495 53.7889 70.1203 53.7432 70.0618 53.7432C70.0034 53.7432 69.757 53.6535 69.5148 53.5441C69.2723 53.4344 68.8869 53.2845 68.6583 53.2109C68.4296 53.1374 68.198 53.0397 68.1437 52.9942C68.0894 52.9487 67.9402 52.9116 67.8121 52.9116C67.684 52.9116 67.5502 52.8648 67.5148 52.8076C67.4795 52.7504 67.3591 52.7037 67.2474 52.7037C67.1357 52.7037 66.9631 52.6616 66.8638 52.6098C66.7645 52.5581 66.4727 52.4594 66.2154 52.39C65.9582 52.3209 65.6541 52.2263 65.5398 52.18C65.4254 52.1335 65.2032 52.0688 65.046 52.0358C64.8888 52.003 64.6315 51.949 64.4743 51.9162C64.317 51.8832 64.0949 51.8164 63.9805 51.7673C63.8662 51.7185 63.6323 51.6538 63.4608 51.6239C63.2892 51.594 62.9267 51.5207 62.6551 51.4609C61.3417 51.172 60.5481 51.023 59.3028 50.8315C58.9597 50.7788 58.4802 50.7044 58.2373 50.6665C57.9371 50.6195 57.7955 50.6351 57.7955 50.7148C57.7955 50.7795 57.9049 50.8326 58.0385 50.8326C59.2513 50.8326 66.2154 53.1265 66.2154 53.5259C66.2154 53.6189 66.04 53.9092 65.8256 54.1709C65.6112 54.4329 64.8979 55.338 64.2404 56.1824C63.5829 57.0267 62.7609 58.0748 62.414 58.5111C62.0668 58.9474 61.1988 60.0529 60.4852 60.9677C59.7716 61.8825 58.4181 63.6135 57.4779 64.8146C56.5377 66.0158 55.6281 67.1779 55.4566 67.3973C55.2851 67.6166 54.8264 68.2008 54.4371 68.6959C53.4662 69.9303 53.539 69.837 52.0262 71.7868C51.283 72.7447 50.5231 73.6961 50.3376 73.9009L50.0003 74.2733L49.6619 73.8957C49.3641 73.5636 48.8688 72.935 46.8565 70.3352C46.586 69.9856 45.94 69.1616 45.4212 68.5041C43.3901 65.9305 41.5062 63.5257 40.4945 62.2151C40.1855 61.8149 39.3438 60.7408 38.6239 59.8284C37.9038 58.916 37.2123 58.0355 37.0868 57.8718C36.6538 57.3066 34.3768 54.4178 34.0803 54.0574C33.7071 53.6036 33.704 53.3767 34.0689 53.2424C34.2261 53.1844 34.9766 52.8996 35.737 52.6096C37.6447 51.8817 41.3183 50.8326 41.96 50.8326C42.0935 50.8326 42.203 50.7858 42.203 50.7286C42.203 50.6273 41.7632 50.5792 41.672 50.6704Z" fill="#EDEFF1"/>
<path fill-rule="evenodd" clip-rule="evenodd" d="M45.4262 0.0878379C45.4262 0.136175 44.8298 0.206341 44.1008 0.243503C42.7134 0.314709 42.1505 0.372141 42.0127 0.45738C41.9675 0.485187 41.7087 0.51975 41.4374 0.533784C41.1661 0.547817 40.9207 0.597193 40.8922 0.643451C40.8636 0.689709 40.6351 0.72765 40.3846 0.72765C40.1341 0.72765 39.9002 0.774428 39.8649 0.831601C39.8295 0.888773 39.6162 0.935551 39.3909 0.935551C39.1655 0.935551 38.9813 0.982328 38.9813 1.0395C38.9813 1.09667 38.7708 1.14345 38.5135 1.14345C38.2562 1.14345 38.0457 1.19023 38.0457 1.2474C38.0457 1.30457 37.8586 1.35135 37.6299 1.35135C37.4012 1.35135 37.2141 1.39813 37.2141 1.4553C37.2141 1.51247 37.0504 1.55925 36.8503 1.55925C36.6502 1.55925 36.4865 1.60603 36.4865 1.6632C36.4865 1.72037 36.3256 1.76715 36.1289 1.76715C35.9322 1.76715 35.7422 1.81393 35.7069 1.8711C35.6715 1.92827 35.5312 1.97505 35.395 1.97505C35.2588 1.97505 35.1185 2.02183 35.0832 2.079C35.0478 2.13617 34.9046 2.18295 34.7651 2.18295C34.6255 2.18295 34.5114 2.22973 34.5114 2.2869C34.5114 2.34407 34.374 2.39085 34.2058 2.39085C34.0377 2.39085 33.8711 2.43763 33.8358 2.4948C33.8004 2.55197 33.6572 2.59875 33.5177 2.59875C33.3781 2.59875 33.264 2.64553 33.264 2.7027C33.264 2.75987 33.1237 2.80665 32.9522 2.80665C32.7807 2.80665 32.6403 2.84485 32.6403 2.89189C32.6403 2.93867 32.4064 3.04054 32.1206 3.1185C31.8347 3.19646 31.6008 3.29834 31.6008 3.34511C31.6008 3.39215 31.4839 3.43035 31.341 3.43035C31.198 3.43035 31.0811 3.47713 31.0811 3.5343C31.0811 3.59147 30.9875 3.63825 30.8732 3.63825C30.7588 3.63825 30.6653 3.68503 30.6653 3.7422C30.6653 3.79937 30.5249 3.84615 30.3534 3.84615C30.1819 3.84615 30.0416 3.89293 30.0416 3.9501C30.0416 4.00727 29.948 4.05405 29.8337 4.05405C29.7193 4.05405 29.6258 4.10083 29.6258 4.158C29.6258 4.21517 29.5322 4.26195 29.4179 4.26195C29.3035 4.26195 29.21 4.30873 29.21 4.3659C29.21 4.42307 29.1281 4.47011 29.0281 4.47037C28.928 4.47089 28.7121 4.54106 28.5483 4.6263C28.3846 4.7118 28.1858 4.7817 28.1066 4.7817C28.0273 4.7817 27.9626 4.82848 27.9626 4.88565C27.9626 4.94283 27.869 4.9896 27.7547 4.9896C27.6403 4.9896 27.5468 5.03638 27.5468 5.09355C27.5468 5.15073 27.4532 5.1975 27.3389 5.1975C27.2245 5.1975 27.1307 5.23259 27.1307 5.27547C27.1305 5.31834 26.8732 5.47037 26.5593 5.6133C26.2453 5.75623 25.988 5.89943 25.9878 5.93165C25.9878 5.96387 25.8238 6.05457 25.6237 6.13305C25.4236 6.21154 25.2599 6.31393 25.2599 6.36044C25.2599 6.40696 25.1897 6.4449 25.104 6.4449C25.0182 6.4449 24.948 6.49168 24.948 6.54885C24.948 6.60603 24.8584 6.6528 24.7487 6.6528C24.6393 6.6528 24.534 6.68789 24.5148 6.73077C24.4958 6.77365 24.2581 6.92125 23.9865 7.05899C23.7149 7.19646 23.4927 7.34849 23.4927 7.39683C23.4927 7.4449 23.4314 7.4844 23.3563 7.4844C23.2814 7.4844 23.1294 7.56626 23.0185 7.66632C22.9077 7.76637 22.6884 7.9145 22.5312 7.99584C22.374 8.07692 22.2453 8.18217 22.2453 8.22973C22.2453 8.27702 22.1856 8.316 22.1123 8.316C22.0392 8.316 21.9119 8.40956 21.8295 8.52391C21.7471 8.63825 21.5964 8.73181 21.4948 8.73181C21.3929 8.73181 21.3095 8.76689 21.3095 8.80977C21.309 8.90904 20.7092 9.31445 20.6276 9.27079C20.5938 9.2526 20.4826 9.33446 20.3802 9.4527C20.2778 9.57068 20.1525 9.66866 20.1021 9.67021C20.0517 9.67203 19.8017 9.85914 19.5463 10.086C19.2911 10.3131 19.046 10.499 19.0016 10.499C18.9571 10.499 18.7866 10.6393 18.6227 10.8108C18.4587 10.9823 18.2885 11.1227 18.2445 11.1227C18.2004 11.1227 17.8459 11.4501 17.4566 11.8503C17.0673 12.2505 16.7009 12.578 16.6424 12.578C16.3929 12.578 12.3701 16.5868 12.3701 16.8355C12.3701 16.8859 12.0894 17.2079 11.7464 17.5509C11.4033 17.894 11.1227 18.2063 11.1227 18.2453C11.1227 18.284 10.9823 18.4467 10.8108 18.6071C10.6393 18.7674 10.499 18.9397 10.499 18.9904C10.499 19.0411 10.3132 19.2911 10.086 19.5463C9.85915 19.8017 9.67204 20.0689 9.67022 20.1403C9.66866 20.2118 9.63228 20.2713 9.5894 20.2723C9.54652 20.2734 9.37318 20.5073 9.204 20.7921C9.03508 21.0769 8.85967 21.3098 8.81419 21.3098C8.76897 21.3098 8.73181 21.3929 8.73181 21.4948C8.73181 21.5964 8.63825 21.7471 8.52391 21.8295C8.40956 21.9119 8.31601 22.0392 8.31601 22.1123C8.31601 22.1855 8.27703 22.2453 8.22973 22.2453C8.18217 22.2453 8.07692 22.374 7.99584 22.5312C7.9145 22.6884 7.76637 22.9077 7.66632 23.0184C7.56627 23.1294 7.48441 23.2814 7.48441 23.3563C7.48441 23.4314 7.43763 23.4927 7.38046 23.4927C7.32328 23.4927 7.27651 23.565 7.27651 23.6531C7.27651 23.7412 7.18295 23.9137 7.06861 24.0364C6.95426 24.159 6.86071 24.3209 6.86071 24.3958C6.86071 24.4709 6.81393 24.5322 6.75676 24.5322C6.69958 24.5322 6.65281 24.6258 6.65281 24.7401C6.65281 24.8545 6.61175 24.948 6.56159 24.948C6.51117 24.948 6.4119 25.0883 6.34096 25.2599C6.27001 25.4314 6.17074 25.5717 6.12032 25.5717C6.07017 25.5717 6.02911 25.6653 6.02911 25.7796C6.02911 25.894 5.99402 25.9878 5.95114 25.9878C5.90826 25.988 5.75624 26.2453 5.61331 26.5592C5.47037 26.8732 5.31835 27.1304 5.27547 27.1307C5.23259 27.1307 5.19751 27.2245 5.19751 27.3389C5.19751 27.4532 5.15073 27.5468 5.09356 27.5468C5.03638 27.5468 4.9896 27.6403 4.9896 27.7547C4.9896 27.869 4.94283 27.9626 4.88565 27.9626C4.82848 27.9626 4.7817 28.0533 4.7817 28.1642C4.7817 28.2752 4.73415 28.3955 4.67594 28.4314C4.61798 28.4672 4.59537 28.5369 4.62578 28.5863C4.65619 28.6356 4.63358 28.7053 4.57562 28.7412C4.51741 28.777 4.46985 28.8973 4.46985 29.0083C4.46985 29.1193 4.42308 29.21 4.3659 29.21C4.30873 29.21 4.26195 29.3035 4.26195 29.4179C4.26195 29.5322 4.21518 29.6258 4.158 29.6258C4.10083 29.6258 4.05405 29.7193 4.05405 29.8337C4.05405 29.948 4.00728 30.0416 3.9501 30.0416C3.89293 30.0416 3.84615 30.1819 3.84615 30.3534C3.84615 30.5249 3.79938 30.6653 3.7422 30.6653C3.68503 30.6653 3.63825 30.7588 3.63825 30.8732C3.63825 30.9875 3.59148 31.0811 3.5343 31.0811C3.47713 31.0811 3.43035 31.198 3.43035 31.3409C3.43035 31.4839 3.39215 31.6008 3.34511 31.6008C3.29834 31.6008 3.19647 31.8347 3.1185 32.1206C3.04054 32.4064 2.93867 32.6403 2.89189 32.6403C2.84485 32.6403 2.80665 32.7806 2.80665 32.9522C2.80665 33.1237 2.75988 33.264 2.7027 33.264C2.64553 33.264 2.59875 33.3781 2.59875 33.5177C2.59875 33.6572 2.55198 33.8004 2.4948 33.8357C2.43763 33.8711 2.39085 34.0377 2.39085 34.2058C2.39085 34.3739 2.34407 34.5114 2.2869 34.5114C2.22973 34.5114 2.18295 34.6255 2.18295 34.7651C2.18295 34.9046 2.13617 35.0478 2.079 35.0831C2.02183 35.1185 1.97505 35.2588 1.97505 35.395C1.97505 35.5312 1.92827 35.6715 1.8711 35.7068C1.81393 35.7422 1.76715 35.9322 1.76715 36.1289C1.76715 36.3256 1.72037 36.4865 1.6632 36.4865C1.60603 36.4865 1.55925 36.6502 1.55925 36.8503C1.55925 37.0504 1.51247 37.2141 1.4553 37.2141C1.39813 37.2141 1.35135 37.4012 1.35135 37.6299C1.35135 37.8586 1.30457 38.0457 1.2474 38.0457C1.19023 38.0457 1.14345 38.23 1.14345 38.4553C1.14345 38.6806 1.09667 38.894 1.0395 38.9293C0.982329 38.9646 0.935551 39.1751 0.935551 39.3971C0.935551 39.619 0.888773 39.8295 0.831601 39.8648C0.774428 39.9002 0.727651 40.1341 0.727651 40.3846C0.727651 40.6351 0.689709 40.8635 0.643451 40.8921C0.597193 40.9207 0.547817 41.166 0.533784 41.4374C0.519751 41.7087 0.485187 41.9675 0.45738 42.0127C0.372141 42.1504 0.314709 42.7133 0.243503 44.1008C0.206341 44.8298 0.136175 45.4262 0.0878379 45.4262C0.0395011 45.4262 0 47.4844 0 50C0 52.5156 0.0395011 54.5738 0.0878379 54.5738C0.136175 54.5738 0.206861 55.1702 0.244543 55.8991C0.282485 56.6281 0.33394 57.3415 0.358628 57.4844C0.383576 57.6273 0.454782 58.0249 0.516892 58.368C0.578742 58.711 0.657484 59.238 0.691788 59.5392C0.725832 59.8404 0.794699 60.1122 0.844595 60.1432C0.894751 60.1741 0.935551 60.3809 0.935551 60.6029C0.935551 60.8248 0.982329 61.0353 1.0395 61.0707C1.09667 61.106 1.14345 61.3194 1.14345 61.5447C1.14345 61.77 1.19023 61.9542 1.2474 61.9542C1.30457 61.9542 1.35135 62.1413 1.35135 62.37C1.35135 62.5987 1.39813 62.7858 1.4553 62.7858C1.51247 62.7858 1.55925 62.9496 1.55925 63.1497C1.55925 63.3498 1.60603 63.5135 1.6632 63.5135C1.72037 63.5135 1.76715 63.6743 1.76715 63.8711C1.76715 64.0678 1.81393 64.2578 1.8711 64.2931C1.92827 64.3285 1.97505 64.4688 1.97505 64.605C1.97505 64.7411 2.02183 64.8815 2.079 64.9168C2.13617 64.9522 2.18295 65.0953 2.18295 65.2349C2.18295 65.3744 2.22973 65.4885 2.2869 65.4885C2.34407 65.4885 2.39085 65.6289 2.39085 65.8004C2.39085 65.9719 2.43763 66.1122 2.4948 66.1122C2.55198 66.1122 2.59875 66.2526 2.59875 66.4241C2.59875 66.5956 2.64553 66.7359 2.7027 66.7359C2.75988 66.7359 2.80665 66.8763 2.80665 67.0478C2.80665 67.2193 2.85343 67.3596 2.9106 67.3596C2.96778 67.3596 3.01455 67.4737 3.01455 67.6133C3.01455 67.7528 3.06133 67.896 3.1185 67.9314C3.17568 67.9667 3.22245 68.0865 3.22245 68.1975C3.22245 68.3084 3.26923 68.3991 3.3264 68.3991C3.38358 68.3991 3.43035 68.4898 3.43035 68.6008C3.43035 68.7118 3.47713 68.8316 3.5343 68.8669C3.59148 68.9023 3.63825 69.0221 3.63825 69.133C3.63825 69.244 3.68503 69.3347 3.7422 69.3347C3.79938 69.3347 3.84615 69.475 3.84615 69.6465C3.84615 69.8181 3.89293 69.9584 3.9501 69.9584C4.00728 69.9584 4.05405 70.0519 4.05405 70.1663C4.05405 70.2806 4.10083 70.3742 4.158 70.3742C4.21518 70.3742 4.26195 70.4677 4.26195 70.5821C4.26195 70.6964 4.30873 70.79 4.3659 70.79C4.42308 70.79 4.46985 70.8807 4.46985 70.9917C4.46985 71.1026 4.51741 71.2229 4.57562 71.2588C4.63358 71.2947 4.65619 71.3643 4.62578 71.4137C4.59537 71.4631 4.61798 71.5327 4.67594 71.5686C4.73415 71.6044 4.7817 71.7248 4.7817 71.8357C4.7817 71.9467 4.82848 72.0374 4.88565 72.0374C4.94283 72.0374 4.9896 72.1309 4.9896 72.2453C4.9896 72.3596 5.03638 72.4532 5.09356 72.4532C5.15073 72.4532 5.19751 72.5467 5.19751 72.6611C5.19751 72.7754 5.23259 72.8693 5.27547 72.8693C5.31835 72.8695 5.47037 73.1268 5.61331 73.4407C5.75624 73.7546 5.90826 74.0119 5.95114 74.0122C5.99402 74.0122 6.02911 74.106 6.02911 74.2203C6.02911 74.3347 6.07017 74.4282 6.12032 74.4282C6.17074 74.4282 6.27001 74.5686 6.34096 74.7401C6.4119 74.9116 6.51117 75.0519 6.56159 75.0519C6.61175 75.0519 6.65281 75.1455 6.65281 75.2598C6.65281 75.3742 6.69958 75.4677 6.75676 75.4677C6.81393 75.4677 6.86071 75.5291 6.86071 75.6042C6.86071 75.679 6.95426 75.8409 7.06861 75.9636C7.18295 76.0862 7.27651 76.2588 7.27651 76.3469C7.27651 76.435 7.31757 76.5072 7.36772 76.5072C7.41814 76.5072 7.51741 76.6476 7.58836 76.8191C7.6593 76.9906 7.75858 77.1309 7.80899 77.1309C7.85915 77.1309 7.90021 77.1923 7.90021 77.2674C7.90021 77.3422 7.99376 77.5041 8.10811 77.6268C8.22245 77.7494 8.31601 77.8882 8.31601 77.9353C8.31601 77.9823 8.40956 78.0881 8.52391 78.1704C8.63825 78.2528 8.73181 78.4035 8.73181 78.5052C8.73181 78.607 8.76897 78.6902 8.81419 78.6902C8.85967 78.6902 9.03508 78.923 9.204 79.2079C9.37318 79.4927 9.54652 79.7266 9.5894 79.7276C9.63228 79.7287 9.66866 79.7882 9.67022 79.8596C9.67204 79.9311 9.85915 80.1982 10.086 80.4537C10.3132 80.7089 10.499 80.954 10.499 80.9984C10.499 81.0428 10.6393 81.2133 10.8108 81.3773C10.9823 81.5413 11.1227 81.7118 11.1227 81.7565C11.1227 81.8012 11.4033 82.1091 11.7464 82.4405C12.0894 82.7721 12.3701 83.0912 12.3701 83.1497C12.3701 83.4113 16.605 87.6299 16.8675 87.6299C16.9166 87.6299 17.2279 87.9106 17.5595 88.2536C17.8909 88.5966 18.1988 88.8773 18.2435 88.8773C18.2882 88.8773 18.4587 89.0176 18.6227 89.1891C18.7866 89.3607 18.967 89.501 19.0236 89.501C19.08 89.501 19.3251 89.6881 19.5678 89.9168C19.8106 90.1455 20.0681 90.3326 20.1398 90.3326C20.2115 90.3326 20.2703 90.3739 20.2703 90.4246C20.2703 90.4753 20.4223 90.5891 20.6081 90.6777C20.7939 90.7663 21.0491 90.9352 21.1754 91.0535C21.3017 91.1715 21.4667 91.2682 21.5424 91.2682C21.618 91.2682 21.7471 91.3617 21.8295 91.4761C21.9119 91.5904 22.0392 91.684 22.1123 91.684C22.1856 91.684 22.2453 91.7229 22.2453 91.7702C22.2453 91.8178 22.374 91.923 22.5312 92.0041C22.6884 92.0855 22.9077 92.2336 23.0185 92.3336C23.1294 92.4337 23.2814 92.5156 23.3563 92.5156C23.4314 92.5156 23.4927 92.5623 23.4927 92.6195C23.4927 92.6767 23.565 92.7234 23.6531 92.7234C23.7412 92.7234 23.9137 92.817 24.0364 92.9314C24.159 93.0457 24.3209 93.1393 24.3958 93.1393C24.4709 93.1393 24.5322 93.186 24.5322 93.2432C24.5322 93.3004 24.6258 93.3471 24.7401 93.3471C24.8545 93.3471 24.948 93.3939 24.948 93.4511C24.948 93.5083 25.0182 93.5551 25.104 93.5551C25.1897 93.5551 25.2599 93.593 25.2599 93.6395C25.2599 93.686 25.4236 93.7884 25.6237 93.8669C25.8238 93.9454 25.9878 94.0361 25.9878 94.0683C25.988 94.1005 26.2453 94.2437 26.5593 94.3867C26.8732 94.5296 27.1305 94.6816 27.1307 94.7245C27.1307 94.7674 27.2245 94.8025 27.3389 94.8025C27.4532 94.8025 27.5468 94.8492 27.5468 94.9064C27.5468 94.9636 27.6403 95.0104 27.7547 95.0104C27.869 95.0104 27.9626 95.0571 27.9626 95.1143C27.9626 95.1715 28.0273 95.2183 28.1066 95.2183C28.1858 95.2183 28.3846 95.2882 28.5483 95.3737C28.7121 95.4589 28.928 95.5291 29.0281 95.5296C29.1281 95.5298 29.21 95.5769 29.21 95.6341C29.21 95.6912 29.2708 95.738 29.3451 95.738C29.5364 95.738 30.0398 95.9825 30.0408 96.0758C30.0413 96.1187 30.1819 96.1538 30.3534 96.1538C30.5249 96.1538 30.6653 96.2006 30.6653 96.2578C30.6653 96.3149 30.736 96.3617 30.8225 96.3617C30.909 96.3617 31.0728 96.4085 31.1863 96.4657C31.2999 96.5228 31.486 96.6164 31.5995 96.6736C31.7131 96.7307 31.9002 96.7775 32.0153 96.7775C32.1305 96.7775 32.2245 96.8243 32.2245 96.8815C32.2245 96.9386 32.3181 96.9854 32.4324 96.9854C32.5468 96.9854 32.6403 97.0322 32.6403 97.0894C32.6403 97.1465 32.7807 97.1933 32.9522 97.1933C33.1237 97.1933 33.264 97.2401 33.264 97.2973C33.264 97.3544 33.4044 97.4012 33.5759 97.4012C33.7474 97.4012 33.8877 97.448 33.8877 97.5051C33.8877 97.5623 34.0281 97.6091 34.1996 97.6091C34.3711 97.6091 34.5114 97.6559 34.5114 97.7131C34.5114 97.7702 34.6055 97.817 34.7206 97.817C34.8358 97.817 35.0112 97.8581 35.1104 97.9082C35.4137 98.0613 36.0208 98.2328 36.2599 98.2328C36.3846 98.2328 36.4865 98.2796 36.4865 98.3368C36.4865 98.3939 36.624 98.4407 36.7921 98.4407C36.9602 98.4407 37.1237 98.4825 37.1554 98.5337C37.2095 98.6211 37.4769 98.6762 38.5395 98.8183C38.7825 98.8508 38.9813 98.9194 38.9813 98.9708C38.9813 99.0223 39.1655 99.0644 39.3909 99.0644C39.6162 99.0644 39.8259 99.1052 39.8568 99.1554C39.8877 99.2053 40.1596 99.2741 40.4608 99.3082C40.9387 99.3625 41.2742 99.4171 42.5156 99.6432C42.6585 99.6694 43.3734 99.7206 44.1045 99.7572C44.8355 99.7939 45.4579 99.8635 45.488 99.9119C45.5593 100.027 54.4407 100.027 54.512 99.9119C54.5421 99.8635 55.1645 99.7939 55.8955 99.7572C56.6266 99.7206 57.3415 99.6694 57.4844 99.6432C58.7258 99.4171 59.0613 99.3625 59.5392 99.3082C59.8404 99.2741 60.1123 99.2053 60.1432 99.1554C60.1741 99.1052 60.381 99.0644 60.6029 99.0644C60.8248 99.0644 61.0322 99.0226 61.0639 98.9714C61.0954 98.9202 61.297 98.8539 61.5117 98.824C61.7266 98.7941 62.1128 98.7154 62.3701 98.6497C62.6273 98.5836 62.9899 98.5046 63.1757 98.4737C63.3615 98.443 63.5135 98.3763 63.5135 98.3253C63.5135 98.2744 63.6744 98.2328 63.8711 98.2328C64.0678 98.2328 64.2578 98.186 64.2931 98.1289C64.3285 98.0717 64.4688 98.0249 64.605 98.0249C64.7412 98.0249 64.8815 97.9781 64.9168 97.921C64.9522 97.8638 65.0954 97.817 65.2349 97.817C65.3745 97.817 65.4886 97.7702 65.4886 97.7131C65.4886 97.6559 65.6289 97.6091 65.8004 97.6091C65.9719 97.6091 66.1123 97.5623 66.1123 97.5051C66.1123 97.448 66.2526 97.4012 66.4241 97.4012C66.5956 97.4012 66.736 97.3544 66.736 97.2973C66.736 97.2401 66.8763 97.1933 67.0478 97.1933C67.2193 97.1933 67.3597 97.1465 67.3597 97.0894C67.3597 97.0322 67.4738 96.9854 67.6133 96.9854C67.7529 96.9854 67.8961 96.9386 67.9314 96.8815C67.9667 96.8243 68.0865 96.7775 68.1975 96.7775C68.3085 96.7775 68.3992 96.7307 68.3992 96.6736C68.3992 96.6164 68.5161 96.5696 68.659 96.5696C68.802 96.5696 68.9189 96.5228 68.9189 96.4657C68.9189 96.4085 69.0125 96.3617 69.1268 96.3617C69.2412 96.3617 69.3347 96.3149 69.3347 96.2578C69.3347 96.2006 69.4488 96.1538 69.5884 96.1538C69.7279 96.1538 69.8711 96.107 69.9064 96.0499C69.9418 95.9927 70.0616 95.9459 70.1726 95.9459C70.2835 95.9459 70.3742 95.8991 70.3742 95.8419C70.3742 95.7848 70.4678 95.738 70.5821 95.738C70.6965 95.738 70.79 95.6912 70.79 95.6341C70.79 95.5769 70.8807 95.5301 70.9917 95.5301C71.1027 95.5301 71.223 95.4825 71.2588 95.4243C71.2947 95.3664 71.3643 95.3438 71.4137 95.3742C71.4631 95.4046 71.5327 95.382 71.5686 95.324C71.6045 95.2658 71.7248 95.2183 71.8358 95.2183C71.9467 95.2183 72.0374 95.1715 72.0374 95.1143C72.0374 95.0571 72.131 95.0104 72.2453 95.0104C72.3597 95.0104 72.4532 94.9636 72.4532 94.9064C72.4532 94.8492 72.5468 94.8025 72.6611 94.8025C72.7755 94.8025 72.8693 94.7674 72.8693 94.7245C72.8695 94.6816 73.1268 94.5296 73.4408 94.3867C73.7547 94.2437 74.012 94.0917 74.0122 94.0488C74.0122 94.0059 74.106 93.9709 74.2204 93.9709C74.3347 93.9709 74.4283 93.9298 74.4283 93.8796C74.4283 93.8292 74.5686 93.73 74.7401 93.659C74.9116 93.5881 75.052 93.4888 75.052 93.4384C75.052 93.3882 75.1455 93.3471 75.2599 93.3471C75.3742 93.3471 75.4678 93.3058 75.4678 93.2554C75.4678 93.2047 75.5496 93.1374 75.6497 93.1057C75.8929 93.0288 76.4465 92.6912 76.4899 92.5935C76.5091 92.5506 76.5821 92.5156 76.6523 92.5156C76.7225 92.5156 76.8706 92.4337 76.9816 92.3336C77.0923 92.2336 77.3116 92.0855 77.4688 92.0041C77.626 91.923 77.7547 91.8178 77.7547 91.7702C77.7547 91.7229 77.8145 91.684 77.8877 91.684C77.9608 91.684 78.0881 91.5904 78.1705 91.4761C78.2529 91.3617 78.4036 91.2682 78.5052 91.2682C78.6071 91.2682 78.6902 91.231 78.6902 91.1858C78.6902 91.1403 78.9231 90.9649 79.2079 90.796C79.4927 90.6268 79.7266 90.4534 79.7277 90.4106C79.7287 90.3677 79.7882 90.3313 79.8597 90.3297C79.9311 90.3279 80.1983 90.1408 80.4537 89.9139C80.7089 89.6868 80.9589 89.501 81.0096 89.501C81.0603 89.501 81.2326 89.3607 81.3929 89.1891C81.5533 89.0176 81.7188 88.8773 81.7612 88.8773C81.8033 88.8773 82.1091 88.5966 82.4405 88.2536C82.7721 87.9106 83.0912 87.6299 83.1497 87.6299C83.4103 87.6299 87.422 83.6179 87.422 83.3575C87.422 83.2991 87.7495 82.9327 88.1497 82.5434C88.5499 82.1541 88.8773 81.7996 88.8773 81.7554C88.8773 81.7115 89.0177 81.5413 89.1892 81.3773C89.3607 81.2133 89.501 81.0428 89.501 80.9984C89.501 80.954 89.6868 80.7089 89.914 80.4537C90.1408 80.1982 90.328 79.9311 90.3298 79.8596C90.3313 79.7882 90.3695 79.7297 90.4148 79.7297C90.46 79.7297 90.6336 79.4958 90.8004 79.2099C90.9673 78.9241 91.1409 78.6902 91.1861 78.6902C91.2313 78.6902 91.2682 78.607 91.2682 78.5052C91.2682 78.4035 91.3618 78.2528 91.4761 78.1704C91.5904 78.0881 91.684 77.9823 91.684 77.9353C91.684 77.8882 91.7776 77.7494 91.8919 77.6268C92.0062 77.5041 92.0998 77.3422 92.0998 77.2674C92.0998 77.1923 92.1409 77.1309 92.191 77.1309C92.2414 77.1309 92.3407 76.9906 92.4116 76.8191C92.4826 76.6476 92.5819 76.5072 92.6323 76.5072C92.6824 76.5072 92.7235 76.435 92.7235 76.3469C92.7235 76.2588 92.8171 76.0862 92.9314 75.9636C93.0457 75.8409 93.1393 75.679 93.1393 75.6042C93.1393 75.5291 93.1861 75.4677 93.2432 75.4677C93.3004 75.4677 93.3472 75.3742 93.3472 75.2598C93.3472 75.1455 93.394 75.0519 93.4511 75.0519C93.5083 75.0519 93.5551 74.9818 93.5551 74.896C93.5551 74.8103 93.6019 74.7401 93.659 74.7401C93.7162 74.7401 93.763 74.6699 93.763 74.5842C93.763 74.4984 93.8098 74.4282 93.8669 74.4282C93.9241 74.4282 93.9709 74.3347 93.9709 74.2203C93.9709 74.106 94.006 74.0122 94.0489 74.0122C94.0917 74.0119 94.2438 73.7546 94.3867 73.4407C94.5296 73.1268 94.6817 72.8695 94.7245 72.8693C94.7674 72.8693 94.8025 72.7754 94.8025 72.6611C94.8025 72.5467 94.8493 72.4532 94.9064 72.4532C94.9636 72.4532 95.0104 72.3596 95.0104 72.2453C95.0104 72.1309 95.0572 72.0374 95.1143 72.0374C95.1715 72.0374 95.2183 71.9727 95.2183 71.8934C95.2183 71.8142 95.2882 71.6154 95.3737 71.4516C95.4589 71.2879 95.5291 71.072 95.5296 70.9719C95.5299 70.8718 95.5769 70.79 95.6341 70.79C95.6913 70.79 95.738 70.6964 95.738 70.5821C95.738 70.4677 95.7848 70.3742 95.842 70.3742C95.8992 70.3742 95.9459 70.2806 95.9459 70.1663C95.9459 70.0519 95.9927 69.9584 96.0499 69.9584C96.1071 69.9584 96.1538 69.8181 96.1538 69.6465C96.1538 69.475 96.2006 69.3347 96.2578 69.3347C96.315 69.3347 96.3617 69.2411 96.3617 69.1268C96.3617 69.0124 96.4085 68.9189 96.4657 68.9189C96.5229 68.9189 96.5696 68.8019 96.5696 68.659C96.5696 68.5161 96.6164 68.3991 96.6736 68.3991C96.7308 68.3991 96.7775 68.3084 96.7775 68.1975C96.7775 68.0865 96.8243 67.9667 96.8815 67.9314C96.9387 67.896 96.9854 67.7528 96.9854 67.6133C96.9854 67.4737 97.0322 67.3596 97.0894 67.3596C97.1466 67.3596 97.1934 67.2193 97.1934 67.0478C97.1934 66.8763 97.2401 66.7359 97.2973 66.7359C97.3545 66.7359 97.4012 66.5956 97.4012 66.4241C97.4012 66.2526 97.448 66.1122 97.5052 66.1122C97.5624 66.1122 97.6092 65.9719 97.6092 65.8004C97.6092 65.6289 97.6559 65.4885 97.7131 65.4885C97.7703 65.4885 97.817 65.3744 97.817 65.2349C97.817 65.0953 97.8638 64.9522 97.921 64.9168C97.9782 64.8815 98.0249 64.7411 98.0249 64.605C98.0249 64.4688 98.0717 64.3285 98.1289 64.2931C98.1861 64.2578 98.2328 64.0707 98.2328 63.8773C98.2328 63.684 98.2796 63.4969 98.3368 63.4615C98.394 63.4262 98.4408 63.2858 98.4408 63.1497C98.4408 63.0135 98.4875 62.8731 98.5447 62.8378C98.6019 62.8025 98.6487 62.6154 98.6487 62.422C98.6487 62.2287 98.6954 62.0415 98.7526 62.0062C98.8098 61.9709 98.8566 61.7341 98.8566 61.4802C98.8566 61.2263 98.9033 61.0187 98.9605 61.0187C99.0177 61.0187 99.0644 60.8344 99.0644 60.6091C99.0644 60.3838 99.1052 60.1741 99.1554 60.1432C99.2053 60.1122 99.2742 59.8404 99.3082 59.5392C99.3625 59.0613 99.4171 58.7258 99.6432 57.4844C99.6694 57.3415 99.7206 56.6265 99.7573 55.8955C99.7939 55.1645 99.8636 54.5421 99.9119 54.5119C99.9602 54.482 100 52.4516 100 50C100 47.5483 99.9602 45.5179 99.9119 45.488C99.8636 45.4579 99.7939 44.8355 99.7573 44.1044C99.7206 43.3734 99.6694 42.6585 99.6432 42.5156C99.4171 41.2741 99.3625 40.9386 99.3082 40.4607C99.2742 40.1595 99.2053 39.8877 99.1554 39.8568C99.1052 39.8259 99.0644 39.619 99.0644 39.3971C99.0644 39.1751 99.0177 38.9646 98.9605 38.9293C98.9033 38.894 98.8566 38.6835 98.8566 38.4615C98.8566 38.2396 98.8098 38.0291 98.7526 37.9937C98.6954 37.9584 98.6487 37.7713 98.6487 37.5779C98.6487 37.3846 98.6019 37.1975 98.5447 37.1621C98.4875 37.1268 98.4408 36.9865 98.4408 36.8503C98.4408 36.7141 98.394 36.5738 98.3368 36.5384C98.2796 36.5031 98.2328 36.375 98.2328 36.2539C98.2328 36.0197 98.06 35.4108 97.9083 35.1104C97.8581 35.0112 97.817 34.8357 97.817 34.7206C97.817 34.6055 97.7703 34.5114 97.7131 34.5114C97.6559 34.5114 97.6092 34.3711 97.6092 34.1996C97.6092 34.028 97.5624 33.8877 97.5052 33.8877C97.448 33.8877 97.4012 33.7474 97.4012 33.5759C97.4012 33.4043 97.3545 33.264 97.2973 33.264C97.2401 33.264 97.1934 33.1237 97.1934 32.9522C97.1934 32.7806 97.1466 32.6403 97.0894 32.6403C97.0322 32.6403 96.9854 32.5262 96.9854 32.3867C96.9854 32.2471 96.9387 32.1039 96.8815 32.0686C96.8243 32.0332 96.7775 31.9134 96.7775 31.8025C96.7775 31.6915 96.7308 31.6008 96.6736 31.6008C96.6164 31.6008 96.5696 31.4839 96.5696 31.3409C96.5696 31.198 96.5229 31.0811 96.4657 31.0811C96.4085 31.0811 96.3617 30.9875 96.3617 30.8732C96.3617 30.7588 96.315 30.6653 96.2578 30.6653C96.2006 30.6653 96.1538 30.5249 96.1538 30.3534C96.1538 30.1819 96.1071 30.0416 96.0499 30.0416C95.9927 30.0416 95.9459 29.948 95.9459 29.8337C95.9459 29.7193 95.8992 29.6258 95.842 29.6258C95.7848 29.6258 95.738 29.5322 95.738 29.4179C95.738 29.3035 95.6913 29.21 95.6341 29.21C95.5769 29.21 95.5302 29.1193 95.5302 29.0083C95.5302 28.8973 95.4826 28.777 95.4244 28.7412C95.3664 28.7053 95.3438 28.6356 95.3742 28.5863C95.4046 28.5369 95.382 28.4672 95.3241 28.4314C95.2659 28.3955 95.2183 28.2752 95.2183 28.1642C95.2183 28.0533 95.1715 27.9626 95.1143 27.9626C95.0572 27.9626 95.0104 27.869 95.0104 27.7547C95.0104 27.6403 94.9636 27.5468 94.9064 27.5468C94.8493 27.5468 94.8025 27.4532 94.8025 27.3389C94.8025 27.2245 94.7674 27.1307 94.7245 27.1307C94.6817 27.1304 94.5296 26.8732 94.3867 26.5592C94.2438 26.2453 94.0917 25.988 94.0489 25.9878C94.006 25.9878 93.9709 25.8979 93.9709 25.7882C93.9709 25.6788 93.9275 25.5735 93.8747 25.5543C93.8217 25.5353 93.7632 25.4496 93.7448 25.3638C93.7261 25.2781 93.6292 25.1323 93.5291 25.0398C93.4291 24.9472 93.3472 24.7991 93.3472 24.7105C93.3472 24.6221 93.3121 24.534 93.2692 24.5148C93.2264 24.4958 93.0787 24.258 92.941 23.9865C92.8035 23.7149 92.6515 23.4927 92.6032 23.4927C92.5551 23.4927 92.5156 23.4314 92.5156 23.3563C92.5156 23.2814 92.4337 23.1294 92.3337 23.0184C92.2336 22.9077 92.0855 22.6884 92.0042 22.5312C91.9231 22.374 91.8178 22.2453 91.7703 22.2453C91.723 22.2453 91.684 22.1855 91.684 22.1123C91.684 22.0392 91.5904 21.9119 91.4761 21.8295C91.3618 21.7471 91.2682 21.618 91.2682 21.5424C91.2682 21.4667 91.1746 21.3046 91.0603 21.1819C90.9459 21.0592 90.8524 20.8973 90.8524 20.8225C90.8524 20.7474 90.8028 20.6861 90.7422 20.6861C90.6817 20.6861 90.6559 20.6479 90.6848 20.6011C90.7136 20.5543 90.6463 20.4504 90.5351 20.3703C90.4236 20.29 90.3313 20.1762 90.3298 20.1175C90.328 20.0585 90.1408 19.8017 89.914 19.5463C89.6868 19.2911 89.501 19.0411 89.501 18.9904C89.501 18.9397 89.3607 18.7674 89.1892 18.6071C89.0177 18.4467 88.8773 18.2812 88.8773 18.2388C88.8773 18.1967 88.5967 17.8908 88.2536 17.5595C87.9106 17.2279 87.6299 16.9088 87.6299 16.8503C87.6299 16.5948 83.407 12.3701 83.1518 12.3701C83.0941 12.3701 82.7976 12.1245 82.4922 11.8243C81.6689 11.0143 81.0878 10.499 80.9977 10.499C80.9537 10.499 80.7089 10.3131 80.4537 10.086C80.1983 9.85914 79.9512 9.67203 79.9041 9.67021C79.8573 9.66866 79.7536 9.60888 79.6739 9.53742C79.4148 9.30509 79.2669 9.20218 78.9761 9.05197C78.8189 8.97089 78.6902 8.86564 78.6902 8.81808C78.6902 8.77079 78.6071 8.73181 78.5052 8.73181C78.4036 8.73181 78.2529 8.63825 78.1705 8.52391C78.0881 8.40956 77.9608 8.316 77.8877 8.316C77.8145 8.316 77.7547 8.27702 77.7547 8.22973C77.7547 8.18217 77.626 8.07692 77.4688 7.99584C77.3116 7.9145 77.0923 7.76637 76.9816 7.66632C76.8706 7.56626 76.7186 7.4844 76.6437 7.4844C76.5686 7.4844 76.5073 7.43763 76.5073 7.38045C76.5073 7.32328 76.4241 7.2765 76.3222 7.2765C76.2206 7.2765 76.0699 7.18295 75.9875 7.0686C75.9051 6.95426 75.7544 6.8607 75.6528 6.8607C75.5509 6.8607 75.4678 6.81393 75.4678 6.75675C75.4678 6.69958 75.3914 6.6528 75.2981 6.6528C75.2048 6.6528 75.0528 6.57094 74.9602 6.47089C74.8677 6.37084 74.7219 6.27365 74.6362 6.25519C74.5504 6.23648 74.4647 6.17801 74.4457 6.12526C74.4265 6.07224 74.3212 6.0291 74.2118 6.0291C74.1021 6.0291 74.0122 5.99402 74.0122 5.95114C74.012 5.90826 73.7547 5.75623 73.4408 5.6133C73.1268 5.47037 72.8695 5.31834 72.8693 5.27547C72.8693 5.23259 72.7755 5.1975 72.6611 5.1975C72.5468 5.1975 72.4532 5.15073 72.4532 5.09355C72.4532 5.03638 72.3597 4.9896 72.2453 4.9896C72.131 4.9896 72.0374 4.94283 72.0374 4.88565C72.0374 4.82848 71.9467 4.7817 71.8358 4.7817C71.7248 4.7817 71.6045 4.73415 71.5686 4.67593C71.5327 4.61798 71.4631 4.59537 71.4137 4.62578C71.3643 4.65618 71.2947 4.63357 71.2588 4.57562C71.223 4.51741 71.1027 4.46985 70.9917 4.46985C70.8807 4.46985 70.79 4.42307 70.79 4.3659C70.79 4.30873 70.6965 4.26195 70.5821 4.26195C70.4678 4.26195 70.3742 4.21517 70.3742 4.158C70.3742 4.10083 70.2807 4.05405 70.1663 4.05405C70.052 4.05405 69.9584 4.00727 69.9584 3.9501C69.9584 3.89293 69.8662 3.84615 69.7536 3.84615C69.6411 3.84615 69.3823 3.7526 69.1788 3.63825C68.9753 3.52391 68.7165 3.43035 68.604 3.43035C68.4914 3.43035 68.3992 3.38357 68.3992 3.3264C68.3992 3.26923 68.3085 3.22245 68.1975 3.22245C68.0865 3.22245 67.9667 3.17567 67.9314 3.1185C67.8961 3.06133 67.7529 3.01455 67.6133 3.01455C67.4738 3.01455 67.3597 2.96777 67.3597 2.9106C67.3597 2.85343 67.2193 2.80665 67.0478 2.80665C66.8763 2.80665 66.736 2.75987 66.736 2.7027C66.736 2.64553 66.6219 2.59875 66.4823 2.59875C66.3428 2.59875 66.1996 2.55197 66.1642 2.4948C66.1289 2.43763 65.9623 2.39085 65.7942 2.39085C65.626 2.39085 65.4886 2.34407 65.4886 2.2869C65.4886 2.22973 65.3745 2.18295 65.2349 2.18295C65.0954 2.18295 64.9522 2.13617 64.9168 2.079C64.8815 2.02183 64.7412 1.97505 64.605 1.97505C64.4688 1.97505 64.3285 1.92827 64.2931 1.8711C64.2578 1.81393 64.0678 1.76715 63.8711 1.76715C63.6744 1.76715 63.5135 1.72037 63.5135 1.6632C63.5135 1.60603 63.3498 1.55925 63.1497 1.55925C62.9496 1.55925 62.7859 1.51247 62.7859 1.4553C62.7859 1.39813 62.6027 1.35135 62.3786 1.35135C62.1549 1.35135 61.9561 1.30691 61.9369 1.2526C61.9179 1.19828 61.7035 1.14241 61.4605 1.12838C61.2175 1.11434 61.0187 1.06523 61.0187 1.01923C61.0187 0.973233 60.8345 0.935551 60.6091 0.935551C60.3838 0.935551 60.1705 0.888773 60.1351 0.831601C60.0998 0.774428 59.8659 0.72765 59.6154 0.72765C59.3649 0.72765 59.1364 0.689709 59.1078 0.643451C59.0793 0.597193 58.8339 0.547817 58.5626 0.533784C58.2913 0.51975 58.0325 0.485187 57.9873 0.45738C57.8495 0.372141 57.2866 0.314709 55.8992 0.243503C55.1702 0.206341 54.5738 0.136175 54.5738 0.0878379C54.5738 0.0395011 52.5156 0 50 0C47.4844 0 45.4262 0.0395011 45.4262 0.0878379ZM52.0489 9.46076C53.8961 9.70114 55.6094 10.0847 56.7048 10.5031C56.8191 10.5468 57.1933 10.6887 57.5364 10.8181C58.8763 11.3241 62.157 13.2066 62.578 13.711C62.6065 13.7453 62.934 14.0296 63.3056 14.3428C75.7539 24.8331 70.6775 45.7484 54.7817 49.462C53.5759 49.7437 53.315 49.7921 52.9945 49.7936C52.2321 49.7973 52.4062 49.9716 53.2412 50.0408C53.7167 50.0803 54.6206 50.1543 55.2495 50.2058C60.2651 50.6146 66.3755 51.9937 69.8545 53.5018C70.0546 53.5883 70.3119 53.6951 70.4262 53.7388C71.3586 54.0951 73.5972 55.1879 74.7238 55.8368C89.3503 64.2606 88.519 78.0327 72.921 85.6995C69.8812 87.1938 67.9714 87.9007 64.3451 88.8737C63.9816 88.9714 62.4797 89.3264 61.6944 89.5005C61.4657 89.5511 61.0915 89.6237 60.8628 89.6613C60.6341 89.6993 60.2131 89.7687 59.9272 89.816C56.4725 90.3872 53.8607 90.5912 50 90.5912C45.8233 90.5912 42.1902 90.2695 38.9813 89.6156C38.724 89.5631 38.2562 89.4693 37.9418 89.4069C35.6983 88.9623 31.4132 87.6824 29.8402 86.9872C29.5793 86.8718 29.2724 86.7401 29.158 86.6941C24.7861 84.9392 20.5068 81.8763 17.8612 78.6094C16.7453 77.2312 15.6419 75.0439 15.2011 73.3368C14.9088 72.2042 14.8649 71.8131 14.8649 70.3466C14.8654 63.6759 20.3799 57.4579 29.5998 53.7328C29.7284 53.6808 29.9389 53.5959 30.0676 53.5439C33.0819 52.3272 36.6957 51.3409 40.1767 50.7845C40.7484 50.6931 41.3672 50.5943 41.552 50.5647C42.2869 50.4472 43.6655 50.2921 44.7505 50.2045C45.3794 50.1538 46.2833 50.0803 46.7588 50.0408C47.5938 49.9716 47.7679 49.7973 47.0055 49.7936C46.685 49.7921 46.4241 49.7437 45.2183 49.462C35.6988 47.238 29.027 38.1076 29.7303 28.2658C29.8228 26.9735 30.1276 25.0678 30.3443 24.4283C30.3927 24.2853 30.5398 23.8176 30.6715 23.3888C30.803 22.96 30.9491 22.5647 30.9958 22.5104C31.0426 22.4561 31.0813 22.3391 31.0816 22.2505C31.0824 21.9912 32.4543 19.3433 33.0294 18.4906C36.2084 13.7796 41.0889 10.5787 46.4657 9.67853C47.9782 9.42541 48.4504 9.38149 49.8139 9.36876C50.5977 9.36148 51.6034 9.4028 52.0489 9.46076Z" fill="#00766F"/>
<path fill-rule="evenodd" clip-rule="evenodd" d="M47.7633 9.47574C42.9738 10.1792 39.5858 11.7153 36.3314 14.659C34.2061 16.5813 31.0834 21.0963 31.0798 22.2525C31.0795 22.3411 31.0408 22.4581 30.994 22.5124C30.9473 22.5667 30.8012 22.962 30.6697 23.3908C30.538 23.8196 30.3909 24.2873 30.3425 24.4303C30.1258 25.0698 29.821 26.9755 29.7285 28.2678C29.0252 38.1096 35.697 47.24 45.2165 49.4641C46.4223 49.7458 46.6832 49.7941 47.0037 49.7957C47.7661 49.7993 47.592 49.9737 46.757 50.0428C46.2815 50.0823 45.3776 50.1558 44.7487 50.2065C43.6637 50.2941 42.2851 50.4492 41.5502 50.5667C41.3654 50.5963 40.7466 50.6951 40.1749 50.7866C36.6939 51.343 33.0801 52.3292 30.0658 53.5459C29.9371 53.5979 29.7266 53.6829 29.598 53.7348C21.6536 56.9446 16.2204 62.2593 15.025 67.99C14.8334 68.9082 14.8038 71.6764 14.9777 72.4277C15.4662 74.5412 16.1105 76.0719 17.1695 77.6348C19.585 81.2 24.2503 84.7268 29.1562 86.6961C29.2706 86.7421 29.5775 86.8739 29.8384 86.9893C31.4114 87.6844 35.6965 88.9643 37.94 89.409C38.2544 89.4713 38.7222 89.5652 38.9795 89.6177C42.1884 90.2715 45.8215 90.5932 49.9982 90.5932C53.8589 90.5932 56.4707 90.3892 59.9254 89.818C60.2113 89.7707 60.6323 89.7013 60.861 89.6634C61.3272 89.5865 61.6918 89.5077 63.0439 89.192C65.5307 88.6112 69.0749 87.4919 70.6757 86.7816C88.3454 78.943 90.2009 64.7536 74.722 55.8388C73.5954 55.1899 71.3568 54.0971 70.4244 53.7408C70.3101 53.6972 70.0528 53.5904 69.8527 53.5038C66.3737 51.9958 60.2633 50.6166 55.2477 50.2078C54.6188 50.1564 53.7149 50.0823 53.2394 50.0428C52.4044 49.9737 52.2303 49.7993 52.9927 49.7957C53.3132 49.7941 53.5741 49.7458 54.7799 49.4641C63.2693 47.4807 69.6307 39.9383 70.2682 31.101C70.4501 28.5766 70.3285 28.9282 70.0588 31.7068C69.8841 33.5046 69.8368 33.8331 69.7386 33.9365C69.6871 33.9908 69.6448 34.1868 69.6448 34.3721C69.6448 34.5573 69.598 34.738 69.5408 34.7733C69.4837 34.8086 69.4369 34.9524 69.4369 35.0927C69.4369 35.233 69.3958 35.429 69.3457 35.5282C69.2955 35.6275 69.1988 35.896 69.131 36.1247C69.0629 36.3533 68.9636 36.6457 68.9104 36.7743C68.8568 36.903 68.7721 37.1135 68.722 37.2421C67.2968 40.8923 64.5756 44.2164 61.0996 46.5529C60.6591 46.8492 60.2498 47.0914 60.19 47.0914C60.1302 47.0914 60.0811 47.1265 60.0811 47.1694C60.0808 47.2122 59.8236 47.3643 59.5096 47.5072C59.1957 47.6501 58.9384 47.8022 58.9382 47.845C58.9382 47.8879 58.8722 47.923 58.7919 47.923C58.7116 47.923 58.4426 48.0233 58.1942 48.1457C57.7186 48.3801 57.5533 48.4479 56.9629 48.6506C56.7628 48.7193 56.5055 48.8113 56.3911 48.8547C55.5442 49.1766 53.8594 49.5516 52.6489 49.6875C52.0772 49.7517 51.3836 49.8487 51.1076 49.903C50.4668 50.0295 49.5297 50.0295 48.8888 49.903C48.6128 49.8487 47.9192 49.7517 47.3475 49.6875C45.9015 49.5251 43.7318 48.9755 42.4618 48.4495C41.8766 48.207 39.9623 47.2393 39.9325 47.1707C39.9132 47.127 39.8527 47.0914 39.7978 47.0914C39.7427 47.0914 39.3373 46.8492 38.8969 46.5529C35.7586 44.4435 33.4652 41.837 31.9163 38.6195C31.3961 37.5386 31.2804 37.2811 31.0653 36.7224C31.0159 36.5937 30.934 36.3832 30.8833 36.2546C30.8327 36.126 30.7342 35.8102 30.6645 35.5529C30.5949 35.2957 30.4959 34.9778 30.4447 34.8463C30.3935 34.7151 30.3516 34.4789 30.3516 34.3214C30.3516 34.1642 30.3093 33.9908 30.2578 33.9365C29.7771 33.4308 29.7051 28.2603 30.1469 25.9895C30.2082 25.6751 30.2843 25.2421 30.316 25.0272C30.3477 24.8125 30.4153 24.6109 30.4665 24.5794C30.5177 24.5477 30.5595 24.3871 30.5595 24.2224C30.5595 24.0576 30.6063 23.8939 30.6635 23.8585C30.7207 23.8232 30.7674 23.6829 30.7674 23.5467C30.7674 23.4105 30.8142 23.2702 30.8714 23.2348C30.9286 23.1995 30.9753 23.0792 30.9753 22.9674C30.9753 22.8557 31.0167 22.6831 31.0671 22.5839C31.1177 22.4846 31.2056 22.2863 31.2625 22.1434C32.4953 19.0521 34.9899 15.739 37.5245 13.8274C37.7139 13.6844 37.92 13.5184 37.9824 13.4586C38.2074 13.2429 39.0715 12.6839 39.1801 12.6839C39.2412 12.6839 39.2913 12.641 39.2913 12.5885C39.2913 12.4466 42.3334 10.9744 43.2934 10.6517C44.4595 10.2595 44.8147 10.167 46.308 9.86738C48.5193 9.42351 51.2233 9.42299 53.7404 9.86608C54.8277 10.0573 56.4491 10.5119 57.1188 10.8128C57.2331 10.8643 57.6723 11.0495 58.0946 11.2247C58.5169 11.4001 59.1718 11.7127 59.5499 11.9196C59.928 12.1267 60.4137 12.3926 60.6297 12.5106C60.8454 12.6286 61.1125 12.8094 61.223 12.9123C61.3337 13.0155 61.4639 13.0997 61.5128 13.0997C61.5616 13.0997 61.6936 13.1816 61.8064 13.2816C61.9195 13.3817 62.2207 13.626 62.4759 13.8242C65.104 15.8674 67.5029 19.0566 68.7339 22.1434C68.7908 22.2863 68.8787 22.4846 68.9293 22.5839C68.9798 22.6831 69.0211 22.8557 69.0211 22.9674C69.0211 23.0792 69.0679 23.1995 69.125 23.2348C69.1822 23.2702 69.229 23.4105 69.229 23.5467C69.229 23.6829 69.2758 23.8232 69.3329 23.8585C69.3901 23.8939 69.4369 24.0576 69.4369 24.2224C69.4369 24.3871 69.4787 24.5477 69.5299 24.5794C69.5811 24.6109 69.6492 24.8125 69.6817 25.0272C69.7142 25.2421 69.7911 25.6985 69.8527 26.0415C69.9143 26.3845 70.0096 27.1797 70.0647 27.8086C70.184 29.172 70.249 29.4009 70.2602 28.4976C70.2778 27.0891 69.7201 24.3471 69.0738 22.6631C67.7872 19.3102 65.8049 16.4524 63.3038 14.3448C62.9322 14.0316 62.6048 13.7473 62.5762 13.713C62.1552 13.2086 58.8745 11.3261 57.5346 10.8201C57.1916 10.6907 56.8173 10.5488 56.703 10.5051C54.3101 9.59113 50.1999 9.1179 47.7633 9.47574ZM57.1448 50.5935C57.0447 50.6195 56.881 50.6195 56.781 50.5935C56.6809 50.5672 56.7628 50.5459 56.9629 50.5459C57.163 50.5459 57.2448 50.5672 57.1448 50.5935ZM42.2019 50.7297C42.2019 50.7868 42.0925 50.8336 41.959 50.8336C41.3173 50.8336 37.6437 51.8827 35.736 52.6106C34.9756 52.9006 34.2251 53.1855 34.0679 53.2434C33.703 53.3778 33.7061 53.6046 34.0793 54.0584C34.3758 54.4188 36.6528 57.3076 37.0858 57.8728C37.2113 58.0366 37.9028 58.917 38.6229 59.8294C39.3428 60.7419 40.1845 61.8159 40.4935 62.2161C41.5052 63.5267 43.3891 65.9316 45.4202 68.5051C45.939 69.1626 46.585 69.9867 46.8555 70.3362C48.8677 72.936 49.3631 73.5646 49.6609 73.8968L49.9992 74.2743L50.3366 73.902C50.5221 73.6972 51.282 72.7458 52.0252 71.7879C53.538 69.838 53.4652 69.9313 54.4361 68.6969C54.8254 68.2018 55.2841 67.6176 55.4556 67.3983C55.6271 67.179 56.5367 66.0168 57.4769 64.8157C58.4171 63.6145 59.7706 61.8835 60.4842 60.9687C61.1978 60.054 62.0658 58.9485 62.413 58.5121C62.7599 58.0758 63.5819 57.0277 64.2394 56.1834C64.8969 55.3391 65.6102 54.4339 65.8246 54.172C66.039 53.9103 66.2144 53.62 66.2144 53.5269C66.2144 53.1275 59.2503 50.8336 58.0374 50.8336C57.9039 50.8336 57.7945 50.7806 57.7945 50.7159C57.7945 50.6361 57.9361 50.6205 58.2363 50.6675C58.4792 50.7055 58.9587 50.7798 59.3017 50.8326C60.5471 51.0241 61.3407 51.173 62.6541 51.462C62.9257 51.5217 63.2882 51.595 63.4597 51.6249C63.6313 51.6548 63.8652 51.7195 63.9795 51.7684C64.0938 51.8175 64.316 51.8843 64.4733 51.9173C64.6305 51.95 64.8878 52.0041 65.045 52.0368C65.2022 52.0698 65.4244 52.1345 65.5387 52.1811C65.6531 52.2273 65.9571 52.3219 66.2144 52.391C66.4717 52.4604 66.7635 52.5592 66.8628 52.6109C66.9621 52.6626 67.1346 52.7047 67.2464 52.7047C67.3581 52.7047 67.4785 52.7515 67.5138 52.8087C67.5491 52.8658 67.683 52.9126 67.8111 52.9126C67.9392 52.9126 68.0884 52.9498 68.1427 52.9952C68.197 53.0407 68.4286 53.1384 68.6572 53.212C68.8859 53.2855 69.2713 53.4355 69.5138 53.5451C69.756 53.6545 70.0024 53.7442 70.0608 53.7442C70.1193 53.7442 70.2485 53.7899 70.3477 53.8461C70.447 53.9022 71.0195 54.1636 71.6198 54.4269C72.2201 54.6901 73.1557 55.1442 73.6988 55.4355C74.242 55.7271 74.7913 56.0153 74.9195 56.0761C75.0476 56.1371 75.1528 56.2221 75.1534 56.265C75.1539 56.3079 75.204 56.343 75.2651 56.343C75.4275 56.343 77.6702 57.8858 78.638 58.6636C79.5645 59.4079 81.7911 61.6691 82.0811 62.1603C82.1835 62.3339 82.3043 62.476 82.349 62.476C82.394 62.476 82.4306 62.5223 82.4306 62.5787C82.4306 62.6353 82.5125 62.7769 82.6126 62.8936C83.4241 63.8398 84.4522 66.2723 84.8238 68.1252C85.387 70.9344 84.6814 74.6072 83.1396 76.8918C82.9785 77.1309 82.8464 77.3765 82.8464 77.4376C82.8464 77.4986 82.8075 77.5488 82.7602 77.5488C82.7126 77.5488 82.6076 77.6774 82.5268 77.8346C82.4462 77.9919 82.309 78.1907 82.2222 78.2764C82.1354 78.3622 81.9275 78.6195 81.7599 78.8482C81.3615 79.3916 79.5213 81.2328 78.7924 81.8172C78.4779 82.0693 78.1973 82.3019 78.1687 82.3341C78.1401 82.3661 77.953 82.5049 77.7529 82.6423C77.5528 82.7798 77.3657 82.9194 77.3371 82.9529C77.2547 83.0488 76.2324 83.7016 75.1022 84.3801C74.2347 84.9006 71.4798 86.2928 70.7362 86.5865C70.6219 86.6317 70.388 86.7278 70.2165 86.8003C69.5819 87.0685 69.1198 87.2473 68.6053 87.424C68.4052 87.4926 68.1479 87.5862 68.0335 87.6317C67.9192 87.6772 67.3579 87.8593 66.7861 88.0361C58.7503 90.5231 49.5406 91.1306 40.6427 89.7614C38.999 89.5082 35.3885 88.705 34.1684 88.3206C33.9273 88.2447 33.3792 88.0766 32.9504 87.9469C32.1539 87.706 31.7903 87.5745 31.4704 87.4118C31.3711 87.3614 31.2186 87.3201 31.1313 87.3201C31.0439 87.3201 30.8914 87.2788 30.7921 87.2284C30.6165 87.139 30.2825 86.9986 29.8059 86.8136C28.1203 86.1592 23.7266 83.8219 23.1975 83.298C23.1222 83.2234 23.0203 83.1621 22.9712 83.1621C22.9221 83.1621 22.8202 83.1021 22.7448 83.0288C22.6692 82.9555 22.4436 82.7821 22.2435 82.6439C22.0434 82.5056 21.8563 82.3661 21.8277 82.3341C21.7991 82.3019 21.5185 82.068 21.204 81.8141C20.4579 81.212 18.6237 79.3791 18.2357 78.8482C18.0686 78.6195 17.861 78.3622 17.7742 78.2764C17.6874 78.1907 17.5502 77.9919 17.4696 77.8346C17.3888 77.6774 17.2838 77.5488 17.2363 77.5488C17.189 77.5488 17.15 77.4986 17.15 77.4376C17.15 77.3765 17.018 77.1309 16.8568 76.8918C14.7916 73.8318 14.3982 69.1364 15.9098 65.5945C16.3121 64.6522 17.1139 63.1777 17.3784 62.8936C17.4816 62.7829 17.5658 62.6439 17.5658 62.5844C17.5658 62.5249 17.6009 62.4739 17.6437 62.4711C17.6866 62.4685 17.8854 62.2351 18.0855 61.9529C18.6326 61.1808 20.9169 58.9804 22.0356 58.1478C23.2874 57.2161 24.5928 56.343 24.7337 56.343C24.7934 56.343 24.8425 56.3079 24.8431 56.265C24.8436 56.2221 24.9488 56.1348 25.0769 56.0709C25.2051 56.0069 26.0081 55.5995 26.861 55.1655C27.7139 54.7315 29.0237 54.1361 29.7716 53.8427C31.4073 53.2008 31.5988 53.1228 31.8316 53.0043C31.9309 52.9539 32.1035 52.9126 32.2152 52.9126C32.3269 52.9126 32.4473 52.8658 32.4826 52.8087C32.518 52.7515 32.6583 52.7047 32.7945 52.7047C32.9306 52.7047 33.071 52.6579 33.1063 52.6008C33.1417 52.5436 33.3054 52.4968 33.4701 52.4968C33.6349 52.4968 33.7986 52.45 33.834 52.3929C33.8693 52.3357 34.033 52.2889 34.1978 52.2889C34.3626 52.2889 34.5229 52.2476 34.5541 52.1969C34.5855 52.1462 34.7402 52.0792 34.8982 52.0475C35.0562 52.0158 35.3841 51.9402 35.6271 51.8796C36.7191 51.6067 36.9811 51.5436 37.4202 51.4474C37.6775 51.391 38.1219 51.3001 38.4078 51.2452C38.6936 51.1904 39.1614 51.1 39.4473 51.0446C39.7331 50.9893 40.3402 50.8929 40.796 50.8305C41.2521 50.7684 41.6458 50.6966 41.671 50.6714C41.7622 50.5802 42.2019 50.6283 42.2019 50.7297Z" fill="#D3D3D3"/>
</g>
<defs>
<clipPath id="clip0_3_3">
<rect width="100" height="100" fill="white"/>
</clipPath>
</defs>
</svg>
